<svg xmlns="http://www.w3.org/2000/svg" xmlns:xlink="http://www.w3.org/1999/xlink" version="1.1" x="0px" y="0px" viewBox="0 0 100 100" enable-background="new 0 0 100 100" xml:space="preserve"><path d="M91.202,88.547L67.931,65.276c5.386-6.201,8.657-14.285,8.657-23.124c0-19.472-15.842-35.315-35.315-35.315  C21.8,6.837,5.959,22.681,5.959,42.153S21.8,77.467,41.273,77.467c8.838,0,16.922-3.271,23.122-8.657l23.273,23.272  c0.488,0.488,1.128,0.732,1.768,0.732c0.639,0,1.279-0.244,1.766-0.732C92.179,91.106,92.179,89.523,91.202,88.547z M10.959,42.152  c0-16.716,13.599-30.315,30.314-30.315c16.716,0,30.315,13.6,30.315,30.315c0,16.715-13.599,30.314-30.315,30.314  C24.558,72.466,10.959,58.867,10.959,42.152z"></path></svg>